<svg width="327" height="54" viewBox="0 0 327 54" fill="none" xmlns="http://www.w3.org/2000/svg">
<rect width="327" height="54" rx="6" fill="#FEE500"/>
<g clip-path="url(#clip0_224_1482)">
<path fill-rule="evenodd" clip-rule="evenodd" d="M121 18.6C116.029 18.6 112 21.7129 112 25.5523C112 27.94 113.558 30.0449 115.932 31.2969L114.933 34.9445C114.845 35.2668 115.213 35.5237 115.496 35.3369L119.873 32.4482C120.243 32.4838 120.618 32.5046 121 32.5046C125.97 32.5046 130 29.3918 130 25.5523C130 21.7129 125.97 18.6 121 18.6" fill="black"/>
</g>
<path d="M144.734 21.434C144.72 25.704 142.774 28.56 139.204 30.436L138.28 29.4C140.086 28.574 141.598 27.244 142.452 25.522L138.798 25.914L138.574 24.668L142.928 24.346C143.082 23.786 143.194 23.212 143.236 22.596H139.204V21.434H144.734ZM148.108 20.132V25.004H150.04V26.194H148.108V32.606H146.666V20.132H148.108ZM156.847 21.434C156.833 25.704 154.887 28.56 151.317 30.436L150.393 29.4C152.199 28.574 153.711 27.244 154.565 25.522L150.911 25.914L150.687 24.668L155.041 24.346C155.195 23.786 155.307 23.212 155.349 22.596H151.317V21.434H156.847ZM160.221 20.132V25.004H162.153V26.194H160.221V32.606H158.779V20.132H160.221ZM173.917 31.01H162.647V29.862H167.547V27.734C165.237 27.51 163.767 26.194 163.767 24.332C163.767 22.274 165.573 20.902 168.275 20.902C171.019 20.902 172.811 22.274 172.811 24.332C172.811 26.208 171.313 27.524 168.975 27.748V29.862H173.917V31.01ZM171.369 24.346C171.369 23.016 170.151 22.078 168.275 22.078C166.441 22.078 165.209 23.016 165.209 24.346C165.209 25.662 166.441 26.558 168.275 26.558C170.137 26.558 171.369 25.662 171.369 24.346ZM188.616 27.79H184.766V29.876H189.708V31.024H178.438V29.876H183.338V27.79H179.88V23.758H186.824V22.148H179.838V21H188.252V24.92H181.322V26.628H188.616V27.79ZM201.821 30.786H190.551V29.624H201.821V30.786ZM200.351 21.476C200.351 24.78 200.141 27.118 199.805 28.756L198.391 28.574C198.699 27.328 198.909 24.626 198.909 22.61H191.853V21.476H200.351ZM212.926 29.176H211.498V20.132H212.926V29.176ZM213.22 32.242H204.68V28.322H206.108V31.094H213.22V32.242ZM209.426 24.108C209.426 25.886 208.138 27.16 206.234 27.16C204.33 27.16 203.014 25.886 203.014 24.122C203.014 22.344 204.316 21.056 206.234 21.056C208.138 21.056 209.426 22.33 209.426 24.108ZM207.998 24.108C207.998 23.016 207.326 22.246 206.234 22.246C205.17 22.246 204.456 23.044 204.456 24.108C204.456 25.13 205.17 25.942 206.234 25.942C207.326 25.942 207.998 25.13 207.998 24.108Z" fill="black" fill-opacity="0.85"/>
<defs>
<clipPath id="clip0_224_1482">
<rect width="17.9999" height="18" fill="white" transform="translate(112 18)"/>
</clipPath>
</defs>
</svg>
