<svg width="327" height="54" viewBox="0 0 327 54" fill="none" xmlns="http://www.w3.org/2000/svg">
<rect width="327" height="54" rx="6" fill="#03C75A"/>
<g clip-path="url(#clip0_224_1481)">
<path d="M120.349 27.5627L114.417 19H109.5V35H114.651V26.436L120.583 35H125.5V19H120.349V27.5627Z" fill="white"/>
</g>
<path d="M147.71 25.214H145.064V24.192H147.71V20.51H148.9V31.878H147.71V25.214ZM151.364 32.48H150.174V20.244H151.364V32.48ZM146.87 28.966C146.002 29.176 144.336 29.344 142.81 29.372H141.648V21.56H142.88V28.308C144.084 28.308 145.848 28.182 146.688 27.944L146.87 28.966ZM163.239 32.48H161.993V20.244H163.239V32.48ZM153.579 25.48C153.579 23.058 154.559 21.168 156.729 21.168C158.899 21.168 159.865 23.058 159.865 25.494C159.865 27.916 158.899 29.82 156.729 29.82C154.559 29.82 153.579 27.916 153.579 25.48ZM158.633 25.494C158.633 23.604 157.989 22.232 156.729 22.232C155.483 22.232 154.839 23.604 154.839 25.494C154.839 27.384 155.483 28.742 156.729 28.742C157.989 28.742 158.633 27.384 158.633 25.494ZM174.135 25.774H171.937V24.724H174.135V20.244H175.367V32.48H174.135V25.774ZM171.391 29.4H165.637V21.238H166.855V24.318H170.145V21.224H171.391V29.4ZM170.145 28.392V25.298H166.855V28.392H170.145ZM192.096 30.926H181.05V29.918H185.922V27.986H182.38V24.052H189.492V22.26H182.352V21.252H190.724V25.06H183.612V26.978H191.06V27.986H187.168V29.918H192.096V30.926ZM204.209 30.702H193.163V29.694H204.209V30.702ZM202.739 21.63C202.739 24.416 202.529 27.23 202.165 28.812L200.961 28.658C201.269 27.482 201.479 24.472 201.479 22.624H194.311V21.63H202.739ZM215.314 29.134H214.068V20.244H215.314V29.134ZM215.594 32.102H207.264V28.294H208.51V31.108H215.594V32.102ZM208.818 21.07C210.708 21.07 212.094 22.372 212.094 24.122C212.094 25.886 210.708 27.104 208.818 27.104C206.942 27.104 205.556 25.886 205.556 24.136C205.556 22.372 206.942 21.07 208.818 21.07ZM208.818 22.134C207.67 22.134 206.858 22.974 206.858 24.108C206.858 25.228 207.67 26.068 208.818 26.068C210.022 26.068 210.778 25.242 210.778 24.122C210.778 22.96 210.022 22.134 208.818 22.134Z" fill="white"/>
<defs>
<clipPath id="clip0_224_1481">
<rect width="16" height="16" fill="white" transform="translate(109.5 19)"/>
</clipPath>
</defs>
</svg>
