<svg width="327" height="54" viewBox="0 0 327 54" fill="none" xmlns="http://www.w3.org/2000/svg">
<rect width="327" height="54" rx="6" fill="#F2F2F2"/>
<path d="M119.654 26.4141V30.2148C119.513 30.4017 119.292 30.6068 118.991 30.8301C118.695 31.0488 118.301 31.238 117.809 31.3975C117.316 31.557 116.703 31.6367 115.97 31.6367C115.345 31.6367 114.773 31.5319 114.254 31.3223C113.734 31.1081 113.285 30.7959 112.907 30.3857C112.534 29.9756 112.244 29.4766 112.039 28.8887C111.834 28.2962 111.731 27.6217 111.731 26.8652V26.1748C111.731 25.4229 111.825 24.7529 112.012 24.165C112.203 23.5726 112.477 23.0713 112.832 22.6611C113.188 22.251 113.616 21.9411 114.117 21.7314C114.623 21.5173 115.195 21.4102 115.833 21.4102C116.649 21.4102 117.323 21.5469 117.856 21.8203C118.394 22.0892 118.809 22.4629 119.101 22.9414C119.392 23.4199 119.577 23.9668 119.654 24.582H117.973C117.918 24.2357 117.811 23.9258 117.651 23.6523C117.496 23.3789 117.273 23.1647 116.981 23.0098C116.694 22.8503 116.321 22.7705 115.86 22.7705C115.464 22.7705 115.115 22.8457 114.814 22.9961C114.514 23.1465 114.263 23.3675 114.062 23.6592C113.867 23.9508 113.718 24.3063 113.618 24.7256C113.518 25.1449 113.468 25.6234 113.468 26.1611V26.8652C113.468 27.4121 113.525 27.8975 113.639 28.3213C113.757 28.7451 113.926 29.1029 114.145 29.3945C114.368 29.6862 114.639 29.9072 114.958 30.0576C115.277 30.2035 115.637 30.2764 116.038 30.2764C116.43 30.2764 116.751 30.2445 117.002 30.1807C117.253 30.1123 117.451 30.0326 117.597 29.9414C117.747 29.8457 117.863 29.7546 117.945 29.668V27.6924H115.874V26.4141H119.654ZM120.726 27.8838V27.7266C120.726 27.1934 120.804 26.6989 120.959 26.2432C121.114 25.7829 121.337 25.3841 121.629 25.0469C121.925 24.7051 122.285 24.4408 122.709 24.2539C123.137 24.0625 123.62 23.9668 124.158 23.9668C124.7 23.9668 125.183 24.0625 125.607 24.2539C126.035 24.4408 126.398 24.7051 126.694 25.0469C126.99 25.3841 127.216 25.7829 127.371 26.2432C127.526 26.6989 127.603 27.1934 127.603 27.7266V27.8838C127.603 28.417 127.526 28.9115 127.371 29.3672C127.216 29.8229 126.99 30.2217 126.694 30.5635C126.398 30.9007 126.038 31.165 125.614 31.3564C125.19 31.5433 124.709 31.6367 124.171 31.6367C123.629 31.6367 123.144 31.5433 122.715 31.3564C122.292 31.165 121.932 30.9007 121.635 30.5635C121.339 30.2217 121.114 29.8229 120.959 29.3672C120.804 28.9115 120.726 28.417 120.726 27.8838ZM122.374 27.7266V27.8838C122.374 28.2165 122.408 28.5309 122.476 28.8271C122.545 29.1234 122.652 29.3831 122.797 29.6064C122.943 29.8298 123.13 30.0052 123.358 30.1328C123.586 30.2604 123.857 30.3242 124.171 30.3242C124.477 30.3242 124.741 30.2604 124.964 30.1328C125.192 30.0052 125.379 29.8298 125.525 29.6064C125.671 29.3831 125.778 29.1234 125.846 28.8271C125.919 28.5309 125.956 28.2165 125.956 27.8838V27.7266C125.956 27.3984 125.919 27.0885 125.846 26.7969C125.778 26.5007 125.669 26.2386 125.518 26.0107C125.372 25.7829 125.185 25.6051 124.958 25.4775C124.734 25.3454 124.468 25.2793 124.158 25.2793C123.848 25.2793 123.579 25.3454 123.351 25.4775C123.128 25.6051 122.943 25.7829 122.797 26.0107C122.652 26.2386 122.545 26.5007 122.476 26.7969C122.408 27.0885 122.374 27.3984 122.374 27.7266ZM128.32 27.8838V27.7266C128.32 27.1934 128.397 26.6989 128.552 26.2432C128.707 25.7829 128.93 25.3841 129.222 25.0469C129.518 24.7051 129.878 24.4408 130.302 24.2539C130.73 24.0625 131.213 23.9668 131.751 23.9668C132.293 23.9668 132.777 24.0625 133.2 24.2539C133.629 24.4408 133.991 24.7051 134.287 25.0469C134.584 25.3841 134.809 25.7829 134.964 26.2432C135.119 26.6989 135.196 27.1934 135.196 27.7266V27.8838C135.196 28.417 135.119 28.9115 134.964 29.3672C134.809 29.8229 134.584 30.2217 134.287 30.5635C133.991 30.9007 133.631 31.165 133.207 31.3564C132.783 31.5433 132.303 31.6367 131.765 31.6367C131.223 31.6367 130.737 31.5433 130.309 31.3564C129.885 31.165 129.525 30.9007 129.229 30.5635C128.932 30.2217 128.707 29.8229 128.552 29.3672C128.397 28.9115 128.32 28.417 128.32 27.8838ZM129.967 27.7266V27.8838C129.967 28.2165 130.001 28.5309 130.07 28.8271C130.138 29.1234 130.245 29.3831 130.391 29.6064C130.537 29.8298 130.724 30.0052 130.951 30.1328C131.179 30.2604 131.45 30.3242 131.765 30.3242C132.07 30.3242 132.335 30.2604 132.558 30.1328C132.786 30.0052 132.973 29.8298 133.118 29.6064C133.264 29.3831 133.371 29.1234 133.44 28.8271C133.513 28.5309 133.549 28.2165 133.549 27.8838V27.7266C133.549 27.3984 133.513 27.0885 133.44 26.7969C133.371 26.5007 133.262 26.2386 133.112 26.0107C132.966 25.7829 132.779 25.6051 132.551 25.4775C132.328 25.3454 132.061 25.2793 131.751 25.2793C131.441 25.2793 131.172 25.3454 130.945 25.4775C130.721 25.6051 130.537 25.7829 130.391 26.0107C130.245 26.2386 130.138 26.5007 130.07 26.7969C130.001 27.0885 129.967 27.3984 129.967 27.7266ZM140.965 24.1035H142.462V31.2949C142.462 31.9603 142.32 32.5254 142.038 32.9902C141.755 33.4551 141.361 33.8083 140.855 34.0498C140.349 34.2959 139.764 34.4189 139.098 34.4189C138.816 34.4189 138.501 34.3779 138.155 34.2959C137.813 34.2139 137.481 34.0817 137.157 33.8994C136.838 33.7217 136.571 33.487 136.357 33.1953L137.13 32.2246C137.394 32.5391 137.686 32.7692 138.005 32.915C138.324 33.0609 138.659 33.1338 139.01 33.1338C139.388 33.1338 139.709 33.0632 139.973 32.9219C140.242 32.7852 140.45 32.5824 140.596 32.3135C140.741 32.0446 140.814 31.7165 140.814 31.3291V25.7783L140.965 24.1035ZM135.94 27.8838V27.7402C135.94 27.1797 136.009 26.6693 136.145 26.209C136.282 25.7441 136.478 25.3454 136.733 25.0127C136.988 24.6755 137.298 24.418 137.663 24.2402C138.027 24.0579 138.44 23.9668 138.9 23.9668C139.379 23.9668 139.787 24.0534 140.124 24.2266C140.466 24.3997 140.75 24.6481 140.978 24.9717C141.206 25.2907 141.384 25.6735 141.512 26.1201C141.644 26.5622 141.742 27.0544 141.805 27.5967V28.0547C141.746 28.5833 141.646 29.0664 141.505 29.5039C141.363 29.9414 141.177 30.3197 140.944 30.6387C140.712 30.9577 140.425 31.2038 140.083 31.377C139.746 31.5501 139.347 31.6367 138.887 31.6367C138.435 31.6367 138.027 31.5433 137.663 31.3564C137.303 31.1696 136.993 30.9076 136.733 30.5703C136.478 30.2331 136.282 29.8366 136.145 29.3809C136.009 28.9206 135.94 28.4215 135.94 27.8838ZM137.588 27.7402V27.8838C137.588 28.221 137.62 28.5355 137.683 28.8271C137.752 29.1188 137.854 29.3763 137.991 29.5996C138.132 29.8184 138.31 29.9915 138.524 30.1191C138.743 30.2422 139 30.3037 139.297 30.3037C139.684 30.3037 140.001 30.2217 140.247 30.0576C140.498 29.8936 140.689 29.6725 140.821 29.3945C140.958 29.112 141.054 28.7975 141.108 28.4512V27.2139C141.081 26.945 141.024 26.6943 140.937 26.4619C140.855 26.2295 140.744 26.0267 140.602 25.8535C140.461 25.6758 140.283 25.5391 140.069 25.4434C139.855 25.3431 139.602 25.293 139.31 25.293C139.014 25.293 138.757 25.3568 138.538 25.4844C138.319 25.612 138.139 25.7874 137.998 26.0107C137.861 26.234 137.759 26.4938 137.69 26.79C137.622 27.0863 137.588 27.403 137.588 27.7402ZM145.584 21V31.5H143.93V21H145.584ZM150.3 31.6367C149.753 31.6367 149.258 31.5479 148.816 31.3701C148.379 31.1878 148.005 30.9349 147.695 30.6113C147.39 30.2878 147.155 29.9072 146.991 29.4697C146.827 29.0322 146.745 28.5605 146.745 28.0547V27.7812C146.745 27.2025 146.829 26.6784 146.998 26.209C147.167 25.7396 147.401 25.3385 147.702 25.0059C148.003 24.6686 148.358 24.4111 148.769 24.2334C149.179 24.0557 149.623 23.9668 150.102 23.9668C150.63 23.9668 151.093 24.0557 151.489 24.2334C151.886 24.4111 152.214 24.6618 152.474 24.9854C152.738 25.3044 152.934 25.6849 153.062 26.127C153.194 26.569 153.26 27.0566 153.26 27.5898V28.2939H147.545V27.1113H151.633V26.9814C151.624 26.6852 151.564 26.4072 151.455 26.1475C151.35 25.8877 151.188 25.6781 150.97 25.5186C150.751 25.359 150.459 25.2793 150.095 25.2793C149.821 25.2793 149.577 25.3385 149.363 25.457C149.154 25.571 148.978 25.7373 148.837 25.9561C148.696 26.1748 148.586 26.4391 148.509 26.749C148.436 27.0544 148.399 27.3984 148.399 27.7812V28.0547C148.399 28.3783 148.443 28.679 148.529 28.957C148.62 29.2305 148.753 29.4697 148.926 29.6748C149.099 29.8799 149.309 30.0417 149.555 30.1602C149.801 30.2741 150.081 30.3311 150.396 30.3311C150.792 30.3311 151.145 30.2513 151.455 30.0918C151.765 29.9323 152.034 29.7067 152.262 29.415L153.13 30.2559C152.97 30.4883 152.763 30.7116 152.508 30.9258C152.253 31.1354 151.94 31.3063 151.571 31.4385C151.207 31.5706 150.783 31.6367 150.3 31.6367ZM162.084 23.45H164.898V24.388H162.084V23.45ZM161.986 26.628H164.87V27.566H161.986V26.628ZM166.816 19.936H167.936V32.592H166.816V19.936ZM164.282 20.258H165.374V31.948H164.282V20.258ZM161.454 21.532H162.574C162.574 24.85 161.244 27.832 157.842 29.862L157.17 29.036C160.124 27.244 161.454 24.724 161.454 21.742V21.532ZM157.73 21.532H161.916V22.484H157.73V21.532ZM176.461 23.212H179.317V24.178H176.461V23.212ZM178.953 19.936H180.115V27.482H178.953V19.936ZM175.957 27.86C178.561 27.86 180.171 28.742 180.171 30.226C180.171 31.724 178.561 32.578 175.957 32.578C173.339 32.578 171.729 31.724 171.729 30.226C171.729 28.742 173.339 27.86 175.957 27.86ZM175.957 28.77C174.053 28.77 172.891 29.302 172.891 30.226C172.891 31.136 174.053 31.668 175.957 31.668C177.861 31.668 179.023 31.136 179.023 30.226C179.023 29.302 177.861 28.77 175.957 28.77ZM172.933 21.21H173.885V22.232C173.885 24.57 172.457 26.572 170.357 27.356L169.755 26.432C171.631 25.746 172.933 24.052 172.933 22.232V21.21ZM173.157 21.21H174.095V22.232C174.095 23.87 175.327 25.438 177.161 26.082L176.573 27.006C174.515 26.264 173.157 24.36 173.157 22.232V21.21ZM170.105 20.86H176.867V21.812H170.105V20.86ZM187.953 20.734C190.585 20.734 192.545 22.134 192.545 24.234C192.545 26.348 190.585 27.734 187.953 27.734C185.321 27.734 183.347 26.348 183.347 24.234C183.347 22.134 185.321 20.734 187.953 20.734ZM187.953 21.686C185.951 21.686 184.467 22.708 184.467 24.234C184.467 25.746 185.951 26.782 187.953 26.782C189.955 26.782 191.439 25.746 191.439 24.234C191.439 22.708 189.955 21.686 187.953 21.686ZM182.241 29.946H193.707V30.926H182.241V29.946ZM194.77 30.072H206.236V31.038H194.77V30.072ZM199.894 27.356H201.056V30.478H199.894V27.356ZM196.156 20.874H204.822V24.71H197.346V27.244H196.198V23.772H203.674V21.812H196.156V20.874ZM196.198 26.754H205.116V27.706H196.198V26.754ZM210.436 30.072H221.902V31.038H210.436V30.072ZM215.56 27.356H216.722V30.478H215.56V27.356ZM211.822 20.874H220.488V24.71H213.012V27.244H211.864V23.772H219.34V21.812H211.822V20.874ZM211.864 26.754H220.782V27.706H211.864V26.754ZM224.196 21.28H232.344V22.218H224.196V21.28ZM222.964 29.778H234.402V30.744H222.964V29.778ZM231.728 21.28H232.862V22.54C232.862 24.164 232.862 25.97 232.386 28.7L231.224 28.588C231.728 25.998 231.728 24.108 231.728 22.54V21.28ZM244.691 19.95H245.867V29.19H244.691V19.95ZM237.733 31.36H246.245V32.312H237.733V31.36ZM237.733 28.238H238.881V31.682H237.733V28.238ZM239.077 20.818C240.967 20.818 242.367 22.106 242.367 23.94C242.367 25.76 240.967 27.062 239.077 27.062C237.187 27.062 235.773 25.76 235.773 23.94C235.773 22.106 237.187 20.818 239.077 20.818ZM239.077 21.826C237.845 21.826 236.907 22.694 236.907 23.94C236.907 25.172 237.845 26.04 239.077 26.04C240.309 26.04 241.247 25.172 241.247 23.94C241.247 22.694 240.309 21.826 239.077 21.826Z" fill="#1F1F1F"/>
<mask id="mask0_224_1709" style="mask-type:luminance" maskUnits="userSpaceOnUse" x="79" y="17" width="20" height="21">
<path d="M99 17.5H79V37.5H99V17.5Z" fill="white"/>
</mask>
<g mask="url(#mask0_224_1709)">
<path d="M98.6 27.7273C98.6 27.0182 98.5364 26.3364 98.4182 25.6818H89V29.55H94.3818C94.15 30.8 93.4455 31.8591 92.3864 32.5682V35.0773H95.6182C97.5091 33.3364 98.6 30.7727 98.6 27.7273Z" fill="#4285F4"/>
<path d="M89 37.5C91.7 37.5 93.9636 36.6045 95.6181 35.0773L92.3863 32.5682C91.4909 33.1682 90.3454 33.5227 89 33.5227C86.3954 33.5227 84.1909 31.7636 83.4045 29.4H80.0636V31.9909C81.7091 35.2591 85.0909 37.5 89 37.5Z" fill="#34A853"/>
<path d="M83.4045 29.4001C83.2045 28.8001 83.0909 28.1592 83.0909 27.5001C83.0909 26.841 83.2045 26.2001 83.4045 25.6001V23.0092H80.0636C79.3864 24.3592 79 25.8865 79 27.5001C79 29.1137 79.3864 30.641 80.0636 31.991L83.4045 29.4001Z" fill="#FBBC04"/>
<path d="M89 21.4773C90.4681 21.4773 91.7863 21.9818 92.8227 22.9727L95.6909 20.1045C93.9591 18.4909 91.6954 17.5 89 17.5C85.0909 17.5 81.7091 19.7409 80.0636 23.0091L83.4045 25.6C84.1909 23.2364 86.3954 21.4773 89 21.4773Z" fill="#E94235"/>
</g>
</svg>
