<svg width="335" height="188" viewBox="0 0 335 188" fill="none" xmlns="http://www.w3.org/2000/svg">
<rect width="335" height="188" fill="#C1C6CF"/>
<path d="M173 72L171.5 67.5H162.5L161 72H155V88.5H179V72H173Z" stroke="white" stroke-width="2" stroke-linecap="round" stroke-linejoin="round"/>
<path d="M167 82.5C168.657 82.5 170 81.1569 170 79.5C170 77.8431 168.657 76.5 167 76.5C165.343 76.5 164 77.8431 164 79.5C164 81.1569 165.343 82.5 167 82.5Z" stroke="white" stroke-width="2" stroke-linecap="round" stroke-linejoin="round"/>
<path d="M95.6636 105.38C95.6509 107.024 96.8442 108.49 98.52 109.074L98.0122 109.861C96.7046 109.379 95.6699 108.408 95.1621 107.157C94.667 108.497 93.626 109.55 92.2993 110.064L91.7788 109.277C93.4673 108.649 94.6479 107.087 94.6479 105.38V104.301H95.6636V105.38ZM93.3911 111.931V111.105H100.983V115.028H99.9927V111.931H93.3911ZM99.9927 110.547V103.742H100.983V110.547H99.9927ZM106.721 107.208C106.708 109.017 108.016 111.01 109.654 111.791L109.083 112.578C107.813 111.956 106.74 110.623 106.232 109.093C105.712 110.75 104.582 112.21 103.319 112.857L102.709 112.07C104.334 111.277 105.731 109.131 105.744 107.208V105.735H103.116V104.91H109.26V105.735H106.721V107.208ZM110.644 115.028V103.742H111.634V108.312H113.526V109.163H111.634V115.028H110.644ZM123.834 103.742V115.028H122.87V109.163H121.333V114.457H120.381V103.983H121.333V108.312H122.87V103.742H123.834ZM114.021 111.931C115.646 111.036 116.516 109.119 116.509 106.827V105.926H114.288V105.088H119.569V105.926H117.474V106.827C117.474 108.89 118.331 110.712 119.937 111.537L119.34 112.312C118.204 111.689 117.417 110.579 117.017 109.201C116.63 110.769 115.83 112 114.643 112.692L114.021 111.931ZM137.939 103.742V115.054H136.936V103.742H137.939ZM129.052 108.554C129.059 106.154 130.252 104.625 131.934 104.618C133.61 104.625 134.822 106.154 134.816 108.554C134.822 110.959 133.61 112.483 131.934 112.477C130.252 112.483 129.059 110.959 129.052 108.554ZM130.017 108.554C130.017 110.388 130.804 111.594 131.934 111.588C133.07 111.594 133.851 110.388 133.851 108.554C133.851 106.719 133.07 105.513 131.934 105.507C130.804 105.513 130.017 106.719 130.017 108.554ZM145.747 104.859V112.197H140.529V104.859H145.747ZM141.506 111.385H144.769V105.659H141.506V111.385ZM148.171 115.054V103.742H149.174V115.054H148.171ZM155.141 107.208C155.147 109.125 156.538 111.074 158.201 111.791L157.642 112.578C156.322 111.981 155.186 110.68 154.659 109.119C154.132 110.775 152.989 112.21 151.701 112.857L151.104 112.07C152.723 111.296 154.132 109.163 154.138 107.208V105.735H151.472V104.91H157.833V105.735H155.141V107.208ZM159.407 115.028V103.742H160.41V115.028H159.407ZM172.661 108.985V109.772H162.327V108.985H172.661ZM163.571 111.423V110.674H171.366V113.073H164.586V114.152H171.734V114.876H163.583V112.388H170.375V111.423H163.571ZM163.634 104.809V104.085H171.328V106.421H164.663V107.411H171.531V108.135H163.672V105.735H170.325V104.809H163.634ZM187.121 110.572V111.41H182.461V115.054H181.484V111.41H176.837V110.572H187.121ZM177.485 108.896C179.497 108.624 181.478 107.392 181.484 105.977V105.964H177.84V105.151H181.484V103.742H182.461V105.151H186.13V105.964H182.474V105.977C182.474 107.386 184.442 108.624 186.46 108.896L186.092 109.696C184.347 109.43 182.703 108.554 181.985 107.329C181.268 108.566 179.599 109.43 177.853 109.696L177.485 108.896ZM196.807 103.742V108.338H198.635V109.176H196.807V115.028H195.817V103.742H196.807ZM188.149 112.096C191.062 110.648 192.649 108.471 192.878 105.799H188.669V104.961H193.887C193.881 108.154 192.383 111.067 188.708 112.883L188.149 112.096ZM204.945 105.697V106.51H199.283V105.697H201.631V104.085H202.622V105.697H204.945ZM199.689 109.836C199.689 108.338 200.711 107.278 202.114 107.271C203.536 107.278 204.551 108.338 204.564 109.836C204.551 111.353 203.536 112.419 202.114 112.426C200.711 112.419 199.689 111.353 199.689 109.836ZM200.578 109.836C200.578 110.839 201.219 111.556 202.114 111.55C203.015 111.556 203.675 110.839 203.675 109.836C203.675 108.846 203.015 108.122 202.114 108.109C201.219 108.122 200.578 108.846 200.578 109.836ZM205.529 114.47V104.021H206.468V108.503H207.966V103.742H208.918V115.028H207.966V109.328H206.468V114.47H205.529ZM216.244 105.342C216.237 106.853 218.25 108.135 220.217 108.427L219.849 109.214C218.091 108.916 216.371 107.976 215.685 106.618C215 107.976 213.279 108.916 211.546 109.214L211.153 108.427C213.114 108.135 215.12 106.853 215.126 105.342V105.266H211.508V104.453H219.849V105.266H216.244V105.342ZM210.543 111.004V110.179H220.827V111.004H216.155V115.028H215.177V111.004H210.543ZM225.13 106.954C225.13 108.75 226.006 110.687 227.504 111.575L226.933 112.35C225.841 111.689 225.061 110.483 224.667 109.106C224.254 110.61 223.417 111.905 222.287 112.591L221.652 111.842C223.213 110.928 224.166 108.928 224.166 106.992V104.809H225.13V106.954ZM226.26 108.643V107.792H228.177V103.983H229.117V114.457H228.177V108.643H226.26ZM230.488 115.028V103.742H231.453V115.028H230.488ZM243.348 112.743V113.581H233.014V112.743H235.579V109.703C234.614 109.201 234.03 108.389 234.03 107.36C234.03 105.615 235.744 104.466 238.156 104.453C240.568 104.466 242.282 105.615 242.282 107.36C242.282 108.37 241.717 109.169 240.784 109.671V112.743H243.348ZM234.995 107.36C234.988 108.624 236.302 109.468 238.156 109.468C239.99 109.468 241.317 108.624 241.317 107.36C241.317 106.097 239.99 105.266 238.156 105.278C236.302 105.266 234.988 106.097 234.995 107.36ZM236.556 112.743H239.781V110.058C239.292 110.185 238.746 110.255 238.156 110.255C237.578 110.255 237.039 110.191 236.556 110.064V112.743Z" fill="white"/>
</svg>
