<svg width="48" height="24" viewBox="0 0 48 24" fill="none" xmlns="http://www.w3.org/2000/svg">
<path d="M18 20L12 15.2778L6 20V4.88889C6 4.38792 6.18061 3.90748 6.5021 3.55324C6.82359 3.19901 7.25963 3 7.71429 3H16.2857C16.7404 3 17.1764 3.19901 17.4979 3.55324C17.8194 3.90748 18 4.38792 18 4.88889V20Z" stroke="white" stroke-width="1.5" stroke-linecap="round" stroke-linejoin="round"/>
<path d="M42 20L36 15.2778L30 20V4.88889C30 4.38792 30.1806 3.90748 30.5021 3.55324C30.8236 3.19901 31.2596 3 31.7143 3H40.2857C40.7404 3 41.1764 3.19901 41.4979 3.55324C41.8194 3.90748 42 4.38792 42 4.88889V20Z" fill="white" stroke="white" stroke-width="1.5" stroke-linecap="round" stroke-linejoin="round"/>
</svg>
