<svg width="72" height="36" viewBox="0 0 72 36" fill="none" xmlns="http://www.w3.org/2000/svg">
<path d="M24 12L22.5 7.5H13.5L12 12H6V28.5H30V12H24Z" stroke="white" stroke-width="2" stroke-linecap="round" stroke-linejoin="round"/>
<path d="M18 22.5C19.6569 22.5 21 21.1569 21 19.5C21 17.8431 19.6569 16.5 18 16.5C16.3431 16.5 15 17.8431 15 19.5C15 21.1569 16.3431 22.5 18 22.5Z" stroke="white" stroke-width="2" stroke-linecap="round" stroke-linejoin="round"/>
<path d="M60 12L58.5 7.5H49.5L48 12H42V28.5H66V12H60Z" stroke="#111111" stroke-width="2" stroke-linecap="round" stroke-linejoin="round"/>
<path d="M54 22.5C55.6569 22.5 57 21.1569 57 19.5C57 17.8431 55.6569 16.5 54 16.5C52.3431 16.5 51 17.8431 51 19.5C51 21.1569 52.3431 22.5 54 22.5Z" stroke="#111111" stroke-width="2" stroke-linecap="round" stroke-linejoin="round"/>
</svg>
