<svg width="36" height="12" viewBox="0 0 36 12" fill="none" xmlns="http://www.w3.org/2000/svg">
<path d="M18.1481 2.11375L19.0206 4.928H21.8424C21.9945 4.928 22.0585 5.13444 21.9345 5.22712L19.653 6.96707L20.5256 9.78132C20.5736 9.93299 20.4055 10.0636 20.2814 9.96669L18 8.22674L15.7186 9.96669C15.5945 10.0594 15.4264 9.93299 15.4744 9.78132L16.347 6.96707L14.0655 5.22712C13.9415 5.13444 14.0055 4.928 14.1576 4.928H16.9794L17.8519 2.11375C17.8999 1.96208 18.1001 1.96208 18.1481 2.11375Z" fill="#111111" stroke="#111111" stroke-linejoin="round"/>
<path d="M6.14809 2.11375L7.02064 4.928H9.8424C9.99449 4.928 10.0585 5.13444 9.93445 5.22712L7.65303 6.96707L8.52557 9.78132C8.5736 9.93299 8.4055 10.0636 8.28142 9.96669L6 8.22674L3.71858 9.96669C3.5945 10.0594 3.42639 9.93299 3.47442 9.78132L4.34697 6.96707L2.06554 5.22712C1.94147 5.13444 2.00551 4.928 2.1576 4.928H4.97936L5.85191 2.11375C5.89994 1.96208 6.10006 1.96208 6.14809 2.11375Z" fill="#E5E5EC" stroke="#E5E5EC" stroke-linejoin="round"/>
<path d="M30.1481 2.11375L31.0206 4.928H33.8424C33.9945 4.928 34.0585 5.13444 33.9345 5.22712L31.653 6.96707L32.5256 9.78132C32.5736 9.93299 32.4055 10.0636 32.2814 9.96669L30 8.22674L27.7186 9.96669C27.5945 10.0594 27.4264 9.93299 27.4744 9.78132L28.347 6.96707L26.0655 5.22712C25.9415 5.13444 26.0055 4.928 26.1576 4.928H28.9794L29.8519 2.11375C29.8999 1.96208 30.1001 1.96208 30.1481 2.11375Z" fill="#FFAA00" stroke="#FFAA00" stroke-linejoin="round"/>
</svg>
