<svg width="12" height="12" viewBox="0 0 12 12" fill="none" xmlns="http://www.w3.org/2000/svg">
<path d="M5.13984 0.63916C5.28516 0.493848 5.28516 0.254785 5.13984 0.109473C4.99453 -0.0358398 4.75547 -0.0358398 4.61016 0.109473L3.86016 0.859473C3.71484 1.00479 3.71484 1.24385 3.86016 1.38916C4.00547 1.53447 4.24453 1.53447 4.38984 1.38916L5.13984 0.63916ZM9.63984 0.63916C9.78516 0.493848 9.78516 0.254785 9.63984 0.109473C9.49453 -0.0358398 9.25547 -0.0358398 9.11016 0.109473L8.36016 0.859473C8.21484 1.00479 8.21484 1.24385 8.36016 1.38916C8.50547 1.53447 8.74453 1.53447 8.88984 1.38916L9.63984 0.63916ZM1.75781 2.95244C1.90547 2.70869 2.06484 2.62432 2.25 2.62432C2.46797 2.62432 2.79141 2.71572 3.08438 2.83057C3.51094 2.99697 3.98672 2.99697 4.41328 2.83057C4.70625 2.71572 5.03203 2.62432 5.24766 2.62432C5.43281 2.62432 5.59219 2.70869 5.73984 2.95244C5.89922 3.21494 5.99766 3.60869 5.99766 4.01885C5.99766 4.18525 5.98594 4.34697 5.9625 4.50166H6.71953C6.73828 4.34463 6.74766 4.18525 6.74766 4.01885C6.74766 2.99697 6.26953 1.87666 5.24766 1.87666C4.88203 1.87666 4.44844 2.01494 4.14141 2.13447C3.89062 2.23291 3.60703 2.23291 3.35625 2.13447C3.04922 2.0126 2.61562 1.87432 2.25 1.87432C1.22813 1.87432 0.75 2.99463 0.75 4.0165C0.75 4.18057 0.759375 4.34228 0.778125 4.49932H1.53516C1.51172 4.34463 1.5 4.18525 1.5 4.0165C1.5 3.60635 1.59844 3.21494 1.75781 2.9501V2.95244ZM11.2195 4.49932C11.2383 4.34228 11.2477 4.18291 11.2477 4.0165C11.2477 2.99463 10.7695 1.87432 9.74766 1.87432C9.38203 1.87432 8.94844 2.0126 8.64141 2.13213C8.39062 2.23057 8.10703 2.23057 7.85625 2.13213C7.56563 2.01963 7.1625 1.89072 6.81094 1.87432C6.89062 1.96807 6.96094 2.06885 7.02188 2.17197C7.12734 2.34541 7.21406 2.53057 7.28203 2.7251C7.38281 2.75557 7.48359 2.79072 7.58203 2.83057C8.00859 2.99697 8.48438 2.99697 8.91094 2.83057C9.20391 2.71572 9.52969 2.62432 9.74531 2.62432C9.93047 2.62432 10.0898 2.70869 10.2375 2.95244C10.3969 3.21494 10.4953 3.60869 10.4953 4.01885C10.4953 4.18525 10.4836 4.34697 10.4602 4.50166H11.2172L11.2195 4.49932ZM0.75 8.99932H11.25V10.6868C11.25 10.9985 10.9992 11.2493 10.6875 11.2493H1.3125C1.00078 11.2493 0.75 10.9985 0.75 10.6868V8.99932ZM0.75 8.24932V6.56182C0.75 6.2501 1.00078 5.99932 1.3125 5.99932H10.6875C10.9992 5.99932 11.25 6.2501 11.25 6.56182V8.24932H0.75ZM12 8.24932V6.56182C12 5.8376 11.4117 5.24932 10.6875 5.24932H1.3125C0.588281 5.24932 0 5.8376 0 6.56182V8.24932V8.62432V8.99932V10.6868C0 11.411 0.588281 11.9993 1.3125 11.9993H10.6875C11.4117 11.9993 12 11.411 12 10.6868V8.99932V8.62432V8.24932ZM2.25 7.12432C2.25 7.02486 2.21049 6.92948 2.14016 6.85915C2.06984 6.78882 1.97446 6.74932 1.875 6.74932C1.77554 6.74932 1.68016 6.78882 1.60984 6.85915C1.53951 6.92948 1.5 7.02486 1.5 7.12432C1.5 7.22377 1.53951 7.31916 1.60984 7.38948C1.68016 7.45981 1.77554 7.49932 1.875 7.49932C1.97446 7.49932 2.06984 7.45981 2.14016 7.38948C2.21049 7.31916 2.25 7.22377 2.25 7.12432ZM10.125 7.49932C10.2245 7.49932 10.3198 7.45981 10.3902 7.38948C10.4605 7.31916 10.5 7.22377 10.5 7.12432C10.5 7.02486 10.4605 6.92948 10.3902 6.85915C10.3198 6.78882 10.2245 6.74932 10.125 6.74932C10.0255 6.74932 9.93016 6.78882 9.85983 6.85915C9.78951 6.92948 9.75 7.02486 9.75 7.12432C9.75 7.22377 9.78951 7.31916 9.85983 7.38948C9.93016 7.45981 10.0255 7.49932 10.125 7.49932ZM2.25 10.1243C2.25 10.0249 2.21049 9.92948 2.14016 9.85915C2.06984 9.78882 1.97446 9.74932 1.875 9.74932C1.77554 9.74932 1.68016 9.78882 1.60984 9.85915C1.53951 9.92948 1.5 10.0249 1.5 10.1243C1.5 10.2238 1.53951 10.3192 1.60984 10.3895C1.68016 10.4598 1.77554 10.4993 1.875 10.4993C1.97446 10.4993 2.06984 10.4598 2.14016 10.3895C2.21049 10.3192 2.25 10.2238 2.25 10.1243ZM10.125 10.4993C10.2245 10.4993 10.3198 10.4598 10.3902 10.3895C10.4605 10.3192 10.5 10.2238 10.5 10.1243C10.5 10.0249 10.4605 9.92948 10.3902 9.85915C10.3198 9.78882 10.2245 9.74932 10.125 9.74932C10.0255 9.74932 9.93016 9.78882 9.85983 9.85915C9.78951 9.92948 9.75 10.0249 9.75 10.1243C9.75 10.2238 9.78951 10.3192 9.85983 10.3895C9.93016 10.4598 10.0255 10.4993 10.125 10.4993Z" fill="black"/>
</svg>
