<svg width="12" height="12" viewBox="0 0 12 12" fill="none" xmlns="http://www.w3.org/2000/svg">
<path d="M3.17647 6.00009C3.83171 6.00009 4.46011 5.73979 4.92344 5.27647C5.38677 4.81314 5.64706 4.18474 5.64706 3.5295C5.64706 2.87426 5.38677 2.24585 4.92344 1.78253C4.46011 1.3192 3.83171 1.05891 3.17647 1.05891C2.52123 1.05891 1.89283 1.3192 1.4295 1.78253C0.966176 2.24585 0.705882 2.87426 0.705882 3.5295C0.705882 4.18474 0.966176 4.81314 1.4295 5.27647C1.89283 5.73979 2.52123 6.00009 3.17647 6.00009ZM6.33309 3.88244C6.15662 5.47067 4.81103 6.70597 3.17647 6.70597C1.42279 6.70597 0 5.28317 0 3.5295C0 1.77582 1.42279 0.353027 3.17647 0.353027C4.81103 0.353027 6.15882 1.58832 6.33309 3.17656H7.82427C7.96985 2.76626 8.3625 2.47067 8.82353 2.47067H10.9412C11.5257 2.47067 12 2.94494 12 3.5295C12 4.11406 11.5257 4.58832 10.9412 4.58832H8.82353C8.3625 4.58832 7.96985 4.29273 7.82427 3.88244H6.33309ZM6 7.41185H6.35294H7.05882V6.70597C7.05882 6.31553 7.37426 6.00009 7.76471 6.00009H9.88235C10.2728 6.00009 10.5882 6.31553 10.5882 6.70597V7.41185H11.2941H11.6471C11.8412 7.41185 12 7.57067 12 7.76479C12 7.95891 11.8412 8.11773 11.6471 8.11773H11.2941V10.5883C11.2941 11.1729 10.8199 11.6471 10.2353 11.6471H7.41177C6.82721 11.6471 6.35294 11.1729 6.35294 10.5883V8.11773H6C5.80588 8.11773 5.64706 7.95891 5.64706 7.76479C5.64706 7.57067 5.80588 7.41185 6 7.41185ZM7.76471 7.41185H9.88235V6.70597H7.76471V7.41185ZM7.05882 8.11773V10.5883C7.05882 10.7824 7.21765 10.9413 7.41177 10.9413H10.2353C10.4294 10.9413 10.5882 10.7824 10.5882 10.5883V8.11773H7.05882ZM10.9412 3.17656H8.82353C8.62941 3.17656 8.47059 3.33538 8.47059 3.5295C8.47059 3.72362 8.62941 3.88244 8.82353 3.88244H10.9412C11.1353 3.88244 11.2941 3.72362 11.2941 3.5295C11.2941 3.33538 11.1353 3.17656 10.9412 3.17656ZM4.23529 3.5295C4.23529 3.24868 4.12374 2.97936 3.92517 2.7808C3.7266 2.58223 3.45729 2.47067 3.17647 2.47067C2.89565 2.47067 2.62634 2.58223 2.42777 2.7808C2.2292 2.97936 2.11765 3.24868 2.11765 3.5295C2.11765 3.81032 2.2292 4.07963 2.42777 4.2782C2.62634 4.47677 2.89565 4.58832 3.17647 4.58832C3.45729 4.58832 3.7266 4.47677 3.92517 4.2782C4.12374 4.07963 4.23529 3.81032 4.23529 3.5295ZM1.41176 3.5295C1.41176 3.06147 1.59769 2.61261 1.92864 2.28166C2.25958 1.95072 2.70844 1.76479 3.17647 1.76479C3.6445 1.76479 4.09336 1.95072 4.42431 2.28166C4.75525 2.61261 4.94118 3.06147 4.94118 3.5295C4.94118 3.99753 4.75525 4.44639 4.42431 4.77733C4.09336 5.10828 3.6445 5.2942 3.17647 5.2942C2.70844 5.2942 2.25958 5.10828 1.92864 4.77733C1.59769 4.44639 1.41176 3.99753 1.41176 3.5295ZM0 11.2942C0 11.1001 0.158824 10.9413 0.352941 10.9413H4.58824C4.78235 10.9413 4.94118 11.1001 4.94118 11.2942C4.94118 11.4883 4.78235 11.6471 4.58824 11.6471H0.352941C0.158824 11.6471 0 11.4883 0 11.2942ZM3.52941 8.11773V8.82362H3.88235C4.07647 8.82362 4.23529 8.66479 4.23529 8.47067C4.23529 8.27656 4.07647 8.11773 3.88235 8.11773H3.52941ZM3.52941 7.41185H3.88235C4.46691 7.41185 4.94118 7.88612 4.94118 8.47067C4.94118 9.05523 4.46691 9.5295 3.88235 9.5295H3.52941C3.52941 9.91994 3.21397 10.2354 2.82353 10.2354H1.41176C1.02132 10.2354 0.705882 9.91994 0.705882 9.5295V7.76479C0.705882 7.57067 0.864706 7.41185 1.05882 7.41185H2.82353H3.17647H3.52941ZM2.82353 8.82362V8.11773H1.41176V9.5295H2.82353V8.82362Z" fill="black"/>
</svg>
