<svg width="21" height="20" viewBox="0 0 21 20" fill="none" xmlns="http://www.w3.org/2000/svg">
<path d="M19.2692 2.2098V7.65388C19.2692 8.32267 18.7058 8.86368 18.0093 8.86368H12.3395C11.643 8.86368 11.0796 8.32267 11.0796 7.65388C11.0796 6.98509 11.643 6.44409 12.3395 6.44409H14.8354C13.6554 4.94318 11.7938 4.03281 9.81136 4.03281C6.34296 4.03281 3.51989 6.74275 3.51989 10.0735C3.51989 13.4042 6.34257 16.1149 9.81175 16.1149C11.1851 16.1149 12.4903 15.6979 13.5869 14.9074C14.1468 14.5093 14.9342 14.6144 15.3512 15.1484C15.7682 15.6837 15.6563 16.4421 15.1002 16.8425C13.5634 17.9494 11.7393 18.5385 9.81628 18.5385C4.95702 18.5383 1 14.7388 1 10.0735C1 5.4082 4.95702 1.60868 9.81569 1.60868C12.5384 1.60868 15.0917 2.83624 16.7493 4.86454V2.2098C16.7493 1.54101 17.3128 1 18.0093 1C18.7058 1 19.2692 1.54101 19.2692 2.2098Z" fill="#999999"/>
</svg>
